<svg xmlns="http://www.w3.org/2000/svg" style="display:none">
  <symbol id="icon-account_circle" viewBox="0 -960 960 960"><path d="M234-276q51-39 114-61.5T480-360q69 0 132 22.5T726-276q35-41 54.5-93T800-480q0-133-93.5-226.5T480-800q-133 0-226.5 93.5T160-480q0 59 19.5 111t54.5 93Zm246-164q-59 0-99.5-40.5T340-580q0-59 40.5-99.5T480-720q59 0 99.5 40.5T620-580q0 59-40.5 99.5T480-440Zm0 360q-83 0-156-31.5T197-197q-54-54-85.5-127T80-480q0-83 31.5-156T197-763q54-54 127-85.5T480-880q83 0 156 31.5T763-763q54 54 85.5 127T880-480q0 83-31.5 156T763-197q-54 54-127 85.5T480-80Zm0-80q53 0 100-15.5t86-44.5q-39-29-86-44.5T480-280q-53 0-100 15.5T294-220q39 29 86 44.5T480-160Zm0-360q26 0 43-17t17-43q0-26-17-43t-43-17q-26 0-43 17t-17 43q0 26 17 43t43 17Zm0-60Zm0 360Z"/></symbol>
  <symbol id="icon-account_tree" viewBox="0 -960 960 960"><path d="M600-120v-120H440v-400h-80v120H80v-320h280v120h240v-120h280v320H600v-120h-80v320h80v-120h280v320H600ZM160-760v160-160Zm520 400v160-160Zm0-400v160-160Zm0 160h120v-160H680v160Zm0 400h120v-160H680v160ZM160-600h120v-160H160v160Z"/></symbol>
  <symbol id="icon-add" viewBox="0 -960 960 960"><path d="M440-440H200v-80h240v-240h80v240h240v80H520v240h-80v-240Z"/></symbol>
  <symbol id="icon-add_circle" viewBox="0 -960 960 960"><path d="M440-280h80v-160h160v-80H520v-160h-80v160H280v80h160v160Zm40 200q-83 0-156-31.5T197-197q-54-54-85.5-127T80-480q0-83 31.5-156T197-763q54-54 127-85.5T480-880q83 0 156 31.5T763-763q54 54 85.5 127T880-480q0 83-31.5 156T763-197q-54 54-127 85.5T480-80Zm0-80q134 0 227-93t93-227q0-134-93-227t-227-93q-134 0-227 93t-93 227q0 134 93 227t227 93Zm0-320Z"/></symbol>
  <symbol id="icon-align_horizontal_left" viewBox="0 -960 960 960"><path d="M80-80v-800h80v800H80Zm160-200v-120h400v120H240Zm0-280v-120h640v120H240Z"/></symbol>
  <symbol id="icon-alt_route" viewBox="0 -960 960 960"><path d="M440-80v-200q0-56-17-83t-45-53l57-57q12 11 23 23.5t22 26.5q14-19 28.5-33.5T538-485q38-35 69-81t33-161l-63 63-57-56 160-160 160 160-56 56-64-63q-2 143-44 203.5T592-425q-32 29-52 56.5T520-280v200h-80ZM248-633q-4-20-5.5-44t-2.5-50l-64 63-56-56 160-160 160 160-57 56-63-62q0 21 2 39.5t4 34.5l-78 19Zm86 176q-20-21-38.5-49T263-575l77-19q10 27 23 46t28 34l-57 57Z"/></symbol>
  <symbol id="icon-analytics" viewBox="0 -960 960 960"><path d="M280-280h80v-200h-80v200Zm320 0h80v-400h-80v400Zm-160 0h80v-120h-80v120Zm0-200h80v-80h-80v80ZM200-120q-33 0-56.5-23.5T120-200v-560q0-33 23.5-56.5T200-840h560q33 0 56.5 23.5T840-760v560q0 33-23.5 56.5T760-120H200Zm0-80h560v-560H200v560Zm0-560v560-560Z"/></symbol>
  <symbol id="icon-arrow_downward" viewBox="0 -960 960 960"><path d="M440-800v487L216-537l-56 57 320 320 320-320-56-57-224 224v-487h-80Z"/></symbol>
  <symbol id="icon-arrow_forward" viewBox="0 -960 960 960"><path d="M647-440H160v-80h487L423-744l57-56 320 320-320 320-57-56 224-224Z"/></symbol>
  <symbol id="icon-block" viewBox="0 -960 960 960"><path d="M480-80q-83 0-156-31.5T197-197q-54-54-85.5-127T80-480q0-83 31.5-156T197-763q54-54 127-85.5T480-880q83 0 156 31.5T763-763q54 54 85.5 127T880-480q0 83-31.5 156T763-197q-54 54-127 85.5T480-80Zm0-80q54 0 104-17.5t92-50.5L228-676q-33 42-50.5 92T160-480q0 134 93 227t227 93Zm252-124q33-42 50.5-92T800-480q0-134-93-227t-227-93q-54 0-104 17.5T284-732l448 448Z"/></symbol>
  <symbol id="icon-bolt" viewBox="0 -960 960 960"><path d="m422-232 207-248H469l29-227-185 267h139l-30 208ZM320-80l40-280H160l360-520h80l-40 320h240L400-80h-80Zm151-390Z"/></symbol>
  <symbol id="icon-call_split" viewBox="0 -960 960 960"><path d="M440-160v-304L240-664v104h-80v-240h240v80H296l224 224v336h-80Zm154-376-58-58 128-126H560v-80h240v240h-80v-104L594-536Z"/></symbol>
  <symbol id="icon-code" viewBox="0 -960 960 960"><path d="M320-240 80-480l240-240 57 57-184 184 183 183-56 56Zm320 0-57-57 184-184-183-183 56-56 240 240-240 240Z"/></symbol>
  <symbol id="icon-content_copy" viewBox="0 -960 960 960"><path d="M360-240q-33 0-56.5-23.5T280-320v-480q0-33 23.5-56.5T360-880h360q33 0 56.5 23.5T800-800v480q0 33-23.5 56.5T720-240H360Zm0-80h360v-480H360v480ZM200-80q-33 0-56.5-23.5T120-160v-560h80v560h440v80H200Zm160-240v-480 480Z"/></symbol>
  <symbol id="icon-database" viewBox="0 -960 960 960"><path d="M480-120q-151 0-255.5-46.5T120-280v-400q0-66 105.5-113T480-840q149 0 254.5 47T840-680v400q0 67-104.5 113.5T480-120Zm0-479q89 0 179-25.5T760-679q-11-29-100.5-55T480-760q-91 0-178.5 25.5T200-679q14 30 101.5 55T480-599Zm0 199q42 0 81-4t74.5-11.5q35.5-7.5 67-18.5t57.5-25v-120q-26 14-57.5 25t-67 18.5Q600-528 561-524t-81 4q-42 0-82-4t-75.5-11.5Q287-543 256-554t-56-25v120q25 14 56 25t66.5 18.5Q358-408 398-404t82 4Zm0 200q46 0 93.5-7t87.5-18.5q40-11.5 67-26t32-29.5v-98q-26 14-57.5 25t-67 18.5Q600-328 561-324t-81 4q-42 0-82-4t-75.5-11.5Q287-343 256-354t-56-25v99q5 15 31.5 29t66.5 25.5q40 11.5 88 18.5t94 7Z"/></symbol>
  <symbol id="icon-delete" viewBox="0 -960 960 960"><path d="M280-120q-33 0-56.5-23.5T200-200v-520h-40v-80h200v-40h240v40h200v80h-40v520q0 33-23.5 56.5T680-120H280Zm400-600H280v520h400v-520ZM360-280h80v-360h-80v360Zm160 0h80v-360h-80v360ZM280-720v520-520Z"/></symbol>
  <symbol id="icon-description" viewBox="0 -960 960 960"><path d="M320-240h320v-80H320v80Zm0-160h320v-80H320v80ZM240-80q-33 0-56.5-23.5T160-160v-640q0-33 23.5-56.5T240-880h320l240 240v480q0 33-23.5 56.5T720-80H240Zm280-520v-200H240v640h480v-440H520ZM240-800v200-200 640-640Z"/></symbol>
  <symbol id="icon-expand_more" viewBox="0 -960 960 960"><path d="M480-345 240-585l56-56 184 184 184-184 56 56-240 240Z"/></symbol>
  <symbol id="icon-forum" viewBox="0 -960 960 960"><path d="M280-240q-17 0-28.5-11.5T240-280v-80h520v-360h80q17 0 28.5 11.5T880-680v600L720-240H280ZM80-280v-560q0-17 11.5-28.5T120-880h520q17 0 28.5 11.5T680-840v360q0 17-11.5 28.5T640-440H240L80-280Zm520-240v-280H160v280h440Zm-440 0v-280 280Z"/></symbol>
  <symbol id="icon-grain" viewBox="0 -960 960 960"><path d="M240-160q-33 0-56.5-23.5T160-240q0-33 23.5-56.5T240-320q33 0 56.5 23.5T320-240q0 33-23.5 56.5T240-160Zm320 0q-33 0-56.5-23.5T480-240q0-33 23.5-56.5T560-320q33 0 56.5 23.5T640-240q0 33-23.5 56.5T560-160ZM400-320q-33 0-56.5-23.5T320-400q0-33 23.5-56.5T400-480q33 0 56.5 23.5T480-400q0 33-23.5 56.5T400-320Zm320 0q-33 0-56.5-23.5T640-400q0-33 23.5-56.5T720-480q33 0 56.5 23.5T800-400q0 33-23.5 56.5T720-320ZM240-480q-33 0-56.5-23.5T160-560q0-33 23.5-56.5T240-640q33 0 56.5 23.5T320-560q0 33-23.5 56.5T240-480Zm320 0q-33 0-56.5-23.5T480-560q0-33 23.5-56.5T560-640q33 0 56.5 23.5T640-560q0 33-23.5 56.5T560-480ZM400-640q-33 0-56.5-23.5T320-720q0-33 23.5-56.5T400-800q33 0 56.5 23.5T480-720q0 33-23.5 56.5T400-640Zm320 0q-33 0-56.5-23.5T640-720q0-33 23.5-56.5T720-800q33 0 56.5 23.5T800-720q0 33-23.5 56.5T720-640Z"/></symbol>
  <symbol id="icon-grid_on" viewBox="0 -960 960 960"><path d="M200-120q-33 0-56.5-23.5T120-200v-560q0-33 23.5-56.5T200-840h560q33 0 56.5 23.5T840-760v560q0 33-23.5 56.5T760-120H200Zm0-80h133v-133H200v133Zm213 0h134v-133H413v133Zm214 0h133v-133H627v133ZM200-413h133v-134H200v134Zm213 0h134v-134H413v134Zm214 0h133v-134H627v134ZM200-627h133v-133H200v133Zm213 0h134v-133H413v133Zm214 0h133v-133H627v133Z"/></symbol>
  <symbol id="icon-grid_view" viewBox="0 -960 960 960"><path d="M120-520v-320h320v320H120Zm0 400v-320h320v320H120Zm400-400v-320h320v320H520Zm0 400v-320h320v320H520ZM200-600h160v-160H200v160Zm400 0h160v-160H600v160Zm0 400h160v-160H600v160Zm-400 0h160v-160H200v160Zm400-400Zm0 240Zm-240 0Zm0-240Z"/></symbol>
  <symbol id="icon-hub" viewBox="0 -960 960 960"><path d="M240-40q-50 0-85-35t-35-85q0-50 35-85t85-35q14 0 26 3t23 8l57-71q-28-31-39-70t-5-78l-81-27q-17 25-43 40t-58 15q-50 0-85-35T0-580q0-50 35-85t85-35q50 0 85 35t35 85v8l81 28q20-36 53.5-61t75.5-32v-87q-39-11-64.5-42.5T360-840q0-50 35-85t85-35q50 0 85 35t35 85q0 42-26 73.5T510-724v87q42 7 75.5 32t53.5 61l81-28v-8q0-50 35-85t85-35q50 0 85 35t35 85q0 50-35 85t-85 35q-32 0-58.5-15T739-515l-81 27q6 39-5 77.5T614-340l57 70q11-5 23-7.5t26-2.5q50 0 85 35t35 85q0 50-35 85t-85 35q-50 0-85-35t-35-85q0-20 6.5-38.5T624-232l-57-71q-41 23-87.5 23T392-303l-56 71q11 15 17.5 33.5T360-160q0 50-35 85t-85 35ZM120-540q17 0 28.5-11.5T160-580q0-17-11.5-28.5T120-620q-17 0-28.5 11.5T80-580q0 17 11.5 28.5T120-540Zm120 420q17 0 28.5-11.5T280-160q0-17-11.5-28.5T240-200q-17 0-28.5 11.5T200-160q0 17 11.5 28.5T240-120Zm240-680q17 0 28.5-11.5T520-840q0-17-11.5-28.5T480-880q-17 0-28.5 11.5T440-840q0 17 11.5 28.5T480-800Zm0 440q42 0 71-29t29-71q0-42-29-71t-71-29q-42 0-71 29t-29 71q0 42 29 71t71 29Zm240 240q17 0 28.5-11.5T760-160q0-17-11.5-28.5T720-200q-17 0-28.5 11.5T680-160q0 17 11.5 28.5T720-120Zm120-420q17 0 28.5-11.5T880-580q0-17-11.5-28.5T840-620q-17 0-28.5 11.5T800-580q0 17 11.5 28.5T840-540ZM480-840ZM120-580Zm360 120Zm360-120ZM240-160Zm480 0Z"/></symbol>
  <symbol id="icon-info" viewBox="0 -960 960 960"><path d="M440-280h80v-240h-80v240Zm40-320q17 0 28.5-11.5T520-640q0-17-11.5-28.5T480-680q-17 0-28.5 11.5T440-640q0 17 11.5 28.5T480-600Zm0 520q-83 0-156-31.5T197-197q-54-54-85.5-127T80-480q0-83 31.5-156T197-763q54-54 127-85.5T480-880q83 0 156 31.5T763-763q54 54 85.5 127T880-480q0 83-31.5 156T763-197q-54 54-127 85.5T480-80Zm0-80q134 0 227-93t93-227q0-134-93-227t-227-93q-134 0-227 93t-93 227q0 134 93 227t227 93Zm0-320Z"/></symbol>
  <symbol id="icon-keyboard_capslock" viewBox="0 -960 960 960"><path d="M240-240v-80h480v80H240Zm240-496 240 240-56 56-184-184-184 184-56-56 240-240Z"/></symbol>
  <symbol id="icon-lan" viewBox="0 -960 960 960"><path d="M120-80v-280h120v-160h200v-80H320v-280h320v280H520v80h200v160h120v280H520v-280h120v-80H320v80h120v280H120Zm280-600h160v-120H400v120ZM200-160h160v-120H200v120Zm400 0h160v-120H600v120ZM480-680ZM360-280Zm240 0Z"/></symbol>
  <symbol id="icon-layers" viewBox="0 -960 960 960"><path d="M480-118 120-398l66-50 294 228 294-228 66 50-360 280Zm0-202L120-600l360-280 360 280-360 280Zm0-280Zm0 178 230-178-230-178-230 178 230 178Z"/></symbol>
  <symbol id="icon-link" viewBox="0 -960 960 960"><path d="M440-280H280q-83 0-141.5-58.5T80-480q0-83 58.5-141.5T280-680h160v80H280q-50 0-85 35t-35 85q0 50 35 85t85 35h160v80ZM320-440v-80h320v80H320Zm200 160v-80h160q50 0 85-35t35-85q0-50-35-85t-85-35H520v-80h160q83 0 141.5 58.5T880-480q0 83-58.5 141.5T680-280H520Z"/></symbol>
  <symbol id="icon-pause" viewBox="0 -960 960 960"><path d="M520-200v-560h240v560H520Zm-320 0v-560h240v560H200Zm400-80h80v-400h-80v400Zm-320 0h80v-400h-80v400Zm0-400v400-400Zm320 0v400-400Z"/></symbol>
  <symbol id="icon-play_arrow" viewBox="0 -960 960 960"><path d="M320-200v-560l440 280-440 280Zm80-280Zm0 134 210-134-210-134v268Z"/></symbol>
  <symbol id="icon-queue" viewBox="0 -960 960 960"><path d="M280-600v-80h560v80H280Zm0 160v-80h560v80H280Zm0 160v-80h560v80H280ZM160-600q-17 0-28.5-11.5T120-640q0-17 11.5-28.5T160-680q17 0 28.5 11.5T200-640q0 17-11.5 28.5T160-600Zm0 160q-17 0-28.5-11.5T120-480q0-17 11.5-28.5T160-520q17 0 28.5 11.5T200-480q0 17-11.5 28.5T160-440Zm0 160q-17 0-28.5-11.5T120-320q0-17 11.5-28.5T160-360q17 0 28.5 11.5T200-320q0 17-11.5 28.5T160-280Z"/></symbol>
  <symbol id="icon-remove_circle" viewBox="0 -960 960 960"><path d="M280-440h400v-80H280v80ZM480-80q-83 0-156-31.5T197-197q-54-54-85.5-127T80-480q0-83 31.5-156T197-763q54-54 127-85.5T480-880q83 0 156 31.5T763-763q54 54 85.5 127T880-480q0 83-31.5 156T763-197q-54 54-127 85.5T480-80Zm0-80q134 0 227-93t93-227q0-134-93-227t-227-93q-134 0-227 93t-93 227q0 134 93 227t227 93Zm0-320Z"/></symbol>
  <symbol id="icon-reorder" viewBox="0 -960 960 960"><path d="M120-200v-80h720v80H120Zm0-160v-80h720v80H120Zm0-160v-80h720v80H120Zm0-160v-80h720v80H120Z"/></symbol>
  <symbol id="icon-replay" viewBox="0 -960 960 960"><path d="M480-80q-75 0-140.5-28.5t-114-77q-48.5-48.5-77-114T120-440h80q0 117 81.5 198.5T480-160q117 0 198.5-81.5T760-440q0-117-81.5-198.5T480-720h-6l62 62-56 58-160-160 160-160 56 58-62 62h6q75 0 140.5 28.5t114 77q48.5 48.5 77 114T840-440q0 75-28.5 140.5t-77 114q-48.5 48.5-114 77T480-80Z"/></symbol>
  <symbol id="icon-route" viewBox="0 -960 960 960"><path d="M360-120q-66 0-113-47t-47-113v-327q-35-13-57.5-43.5T120-720q0-50 35-85t85-35q50 0 85 35t35 85q0 39-22.5 69.5T280-607v327q0 33 23.5 56.5T360-200q33 0 56.5-23.5T440-280v-400q0-66 47-113t113-47q66 0 113 47t47 113v327q35 13 57.5 43.5T840-240q0 50-35 85t-85 35q-50 0-85-35t-35-85q0-39 22.5-70t57.5-43v-327q0-33-23.5-56.5T600-760q-33 0-56.5 23.5T520-680v400q0 66-47 113t-113 47ZM240-680q17 0 28.5-11.5T280-720q0-17-11.5-28.5T240-760q-17 0-28.5 11.5T200-720q0 17 11.5 28.5T240-680Zm480 480q17 0 28.5-11.5T760-240q0-17-11.5-28.5T720-280q-17 0-28.5 11.5T680-240q0 17 11.5 28.5T720-200ZM240-720Zm480 480Z"/></symbol>
  <symbol id="icon-search" viewBox="0 -960 960 960"><path d="M784-120 532-372q-30 24-69 38t-83 14q-109 0-184.5-75.5T120-580q0-109 75.5-184.5T380-840q109 0 184.5 75.5T640-580q0 44-14 83t-38 69l252 252-56 56ZM380-400q75 0 127.5-52.5T560-580q0-75-52.5-127.5T380-760q-75 0-127.5 52.5T200-580q0 75 52.5 127.5T380-400Z"/></symbol>
  <symbol id="icon-search_check" viewBox="0 -960 960 960"><path d="m358-488-97-96 42-42 54 54 100-100 42 42-141 142Zm426 368L532-372q-30 24-69 38t-83 14q-109 0-184.5-75.5T120-580q0-109 75.5-184.5T380-840q109 0 184.5 75.5T640-580q0 44-14 83t-38 69l252 252-56 56ZM380-400q75 0 127.5-52.5T560-580q0-75-52.5-127.5T380-760q-75 0-127.5 52.5T200-580q0 75 52.5 127.5T380-400Z"/></symbol>
  <symbol id="icon-settings" viewBox="0 -960 960 960"><path d="m370-80-16-128q-13-5-24.5-12T307-235l-119 50L78-375l103-78q-1-7-1-13.5v-27q0-6.5 1-13.5L78-585l110-190 119 50q11-8 23-15t24-12l16-128h220l16 128q13 5 24.5 12t22.5 15l119-50 110 190-103 78q1 7 1 13.5v27q0 6.5-2 13.5l103 78-110 190-118-50q-11 8-23 15t-24 12L590-80H370Zm70-80h79l14-106q31-8 57.5-23.5T639-327l99 41 39-68-86-65q5-14 7-29.5t2-31.5q0-16-2-31.5t-7-29.5l86-65-39-68-99 42q-22-23-48.5-38.5T533-694l-13-106h-79l-14 106q-31 8-57.5 23.5T321-633l-99-41-39 68 86 64q-5 15-7 30t-2 32q0 16 2 31t7 30l-86 65 39 68 99-42q22 23 48.5 38.5T427-266l13 106Zm42-180q58 0 99-41t41-99q0-58-41-99t-99-41q-59 0-99.5 41T342-480q0 58 40.5 99t99.5 41Zm-2-140Z"/></symbol>
  <symbol id="icon-skip_next" viewBox="0 -960 960 960"><path d="M660-240v-480h80v480h-80Zm-440 0v-480l360 240-360 240Zm80-240Zm0 90 136-90-136-90v180Z"/></symbol>
  <symbol id="icon-sort" viewBox="0 -960 960 960"><path d="M120-240v-80h240v80H120Zm0-200v-80h480v80H120Zm0-200v-80h720v80H120Z"/></symbol>
  <symbol id="icon-step_forward" viewBox="0 -960 960 960"><path d="M100-240v-480l360 240-360 240Zm400 0v-480l360 240-360 240ZM180-480Zm400 0Zm-400 90 136-90-136-90v180Zm400 0 136-90-136-90v180Z"/></symbol>
  <symbol id="icon-step_over" viewBox="0 -960 960 960"><path d="M480-200q-50 0-85-35t-35-85q0-50 35-85t85-35q50 0 85 35t35 85q0 50-35 85t-85 35ZM163-480q14-119 104-199.5T479-760q73 0 135 29.5T720-650v-110h80v280H520v-80h168q-32-54-86.5-87T480-680q-88 0-155 57t-81 143h-81Z"/></symbol>
  <symbol id="icon-terminal" viewBox="0 -960 960 960"><path d="M160-160q-33 0-56.5-23.5T80-240v-480q0-33 23.5-56.5T160-800h640q33 0 56.5 23.5T880-720v480q0 33-23.5 56.5T800-160H160Zm0-80h640v-400H160v400Zm140-40-56-56 103-104-104-104 57-56 160 160-160 160Zm180 0v-80h240v80H480Z"/></symbol>
  <symbol id="icon-vertical_align_top" viewBox="0 -960 960 960"><path d="M160-760v-80h640v80H160Zm280 640v-408L336-424l-56-56 200-200 200 200-56 56-104-104v408h-80Z"/></symbol>
  <symbol id="icon-view_stream" viewBox="0 -960 960 960"><path d="M760-280v-160H200v160h560Zm0-240v-160H200v160h560ZM200-200q-33 0-56.5-23.5T120-280v-400q0-33 23.5-56.5T200-760h560q33 0 56.5 23.5T840-680v400q0 33-23.5 56.5T760-200H200Z"/></symbol>
</svg>
